<svg width="24" height="25" viewBox="0 0 24 25" fill="none" xmlns="http://www.w3.org/2000/svg">
<g id="arrow-left-short">
<path id="Vector" fill-rule="evenodd" clip-rule="evenodd" d="M12 6.44971C11.8011 6.44971 11.6103 6.52873 11.4697 6.66938C11.329 6.81003 11.25 7.0008 11.25 7.19971L11.25 15.8892L8.031 12.6687C7.96127 12.599 7.87848 12.5437 7.78737 12.5059C7.69626 12.4682 7.59861 12.4488 7.5 12.4488C7.40138 12.4488 7.30373 12.4682 7.21262 12.5059C7.12151 12.5437 7.03873 12.599 6.969 12.6687C6.89927 12.7384 6.84395 12.8212 6.80621 12.9123C6.76848 13.0034 6.74905 13.1011 6.74905 13.1997C6.74905 13.2983 6.76848 13.396 6.80621 13.4871C6.84395 13.5782 6.89927 13.661 6.969 13.7307L11.469 18.2307C11.5387 18.3006 11.6214 18.356 11.7125 18.3938C11.8037 18.4316 11.9013 18.4511 12 18.4511C12.0986 18.4511 12.1963 18.4316 12.2874 18.3938C12.3786 18.356 12.4613 18.3006 12.531 18.2307L17.031 13.7307C17.1718 13.5899 17.2509 13.3989 17.2509 13.1997C17.2509 13.0005 17.1718 12.8095 17.031 12.6687C16.8902 12.5279 16.6992 12.4488 16.5 12.4488C16.3008 12.4488 16.1098 12.5279 15.969 12.6687L12.75 15.8892L12.75 7.19971C12.75 7.0008 12.671 6.81003 12.5303 6.66938C12.3897 6.52873 12.1989 6.44971 12 6.44971Z" fill="#D14F4F"/>
</g>
</svg>
